HIERARCHY
ROOT Hips
{
 OFFSET 0.000000 0.000000 0.000000
 CHANNELS 6 Xposition Yposition Zposition Yrotation Xrotation Zrotation
 JOINT Chest
 {
  OFFSET 0.000000 9.585900 0.002600
  CHANNELS 3 Yrotation Xrotation Zrotation
  JOINT Chest2
  {
   OFFSET 0.000000 9.601200 -0.005300
   CHANNELS 3 Yrotation Xrotation Zrotation
   JOINT Chest3
   {
    OFFSET 0.000000 9.561800 0.000000
    CHANNELS 3 Yrotation Xrotation Zrotation
    JOINT Chest4
    {
     OFFSET 0.000000 9.552100 0.000000
     CHANNELS 3 Yrotation Xrotation Zrotation
     JOINT Neck
     {
      OFFSET 0.000000 14.453000 0.000000
      CHANNELS 3 Yrotation Xrotation Zrotation
      JOINT Head
      {
       OFFSET 0.000000 8.936500 -0.011300
       CHANNELS 3 Yrotation Xrotation Zrotation
       End Site
       {
        OFFSET 0.000000 17.073600 -0.006000
       }
      }
     }
     JOINT RightCollar
     {
      OFFSET -2.921100 9.558500 0.000000
      CHANNELS 3 Yrotation Xrotation Zrotation
      JOINT RightShoulder
      {
       OFFSET -13.519700 0.000000 0.000000
       CHANNELS 3 Yrotation Xrotation Zrotation
       JOINT RightElbow
       {
        OFFSET 0.000000 -29.696600 0.000000
        CHANNELS 3 Yrotation Xrotation Zrotation
        JOINT RightWrist
        {
         OFFSET 0.000000 -24.004700 0.000000
         CHANNELS 3 Yrotation Xrotation Zrotation
         End Site
         {
          OFFSET 0.000000 -17.728500 0.000000
         }
        }
       }
      }
     }
     JOINT LeftCollar
     {
      OFFSET 2.921100 9.558500 0.000000
      CHANNELS 3 Yrotation Xrotation Zrotation
      JOINT LeftShoulder
      {
       OFFSET 13.519700 0.000000 0.000000
       CHANNELS 3 Yrotation Xrotation Zrotation
       JOINT LeftElbow
       {
        OFFSET 0.000000 -29.696600 0.000000
        CHANNELS 3 Yrotation Xrotation Zrotation
        JOINT LeftWrist
        {
         OFFSET 0.000000 -24.004700 0.000000
         CHANNELS 3 Yrotation Xrotation Zrotation
         End Site
         {
          OFFSET 0.000000 -17.728500 0.000000
         }
        }
       }
      }
     }
    }
   }
  }
 }
 JOINT RightHip
 {
  OFFSET -7.771700 -0.012900 -0.001300
  CHANNELS 3 Yrotation Xrotation Zrotation
  JOINT RightKnee
  {
   OFFSET 0.000000 -40.869800 0.001200
   CHANNELS 3 Yrotation Xrotation Zrotation
   JOINT RightAnkle
   {
    OFFSET 0.000000 -39.717900 0.002100
    CHANNELS 3 Yrotation Xrotation Zrotation
    JOINT RightToe
    {
     OFFSET 0.000000 -4.965400 11.033500
     CHANNELS 3 Yrotation Xrotation Zrotation
     End Site
     {
      OFFSET 0.000000 -1.423100 5.872300
     }
    }
   }
  }
 }
 JOINT LeftHip
 {
  OFFSET 7.771700 -0.012900 -0.001300
  CHANNELS 3 Yrotation Xrotation Zrotation
  JOINT LeftKnee
  {
   OFFSET 0.000000 -40.869800 0.001200
   CHANNELS 3 Yrotation Xrotation Zrotation
   JOINT LeftAnkle
   {
    OFFSET 0.000000 -39.717900 0.002100
    CHANNELS 3 Yrotation Xrotation Zrotation
    JOINT LeftToe
    {
     OFFSET 0.000000 -4.965400 11.033500
     CHANNELS 3 Yrotation Xrotation Zrotation
     End Site
     {
      OFFSET 0.000000 -1.423100 5.872300
     }
    }
   }
  }
 }
}
MOTION
Frames: 8
Frame Time: 0.008333
0.000000 85.388000 0.000000 0.000000 -5.767877 0.000000 0.000000 11.653817 0.000000 0.000000 -5.885947 0.000000 0.000000 -0.000000 0.000000 0.000000 -0.000000 0.000000 0.000000 12.528835 0.000000 0.000000 0.711642 0.000000 0.000000 -0.000000 0.000000 0.000000 0.000000 -90.000000 0.000000 -2.309062 0.000000 0.000000 2.309062 0.000000 0.000000 -0.000000 0.000000 0.000000 -0.000000 90.000000 0.000000 -2.309062 0.000000 0.000000 2.309062 0.000000 0.000000 8.520406 0.000000 0.000000 1.905762 0.000000 -0.000000 -4.658285 0.000000 0.000000 -0.000000 0.000000 0.000000 8.520406 0.000000 0.000000 1.905762 0.000000 -0.000000 -4.658285 0.000000 0.000000 -0.000000 0.000000
-43.323347 51.526551 19.758409 176.940756 -19.259582 0.324074 -2.474987 12.865815 0.247746 -0.211620 1.031392 0.067188 -0.335530 1.726133 0.129876 -2.185747 11.613526 0.701003 -2.737506 16.623511 -0.720981 -2.655716 -8.252446 -0.132863 0.922334 13.919613 6.621195 31.922349 -1.281296 -29.025914 160.624690 -71.110550 169.143345 -2.102384 3.032750 -13.541298 1.392672 13.194114 -11.468708 -32.136240 5.281146 30.146349 -171.517589 -72.193877 -153.166804 17.440929 8.659108 2.714318 -11.976600 -63.694666 6.121968 -61.783813 82.135190 -70.332878 -3.622562 -6.696681 9.143950 0.311839 -0.566964 0.122818 7.503169 -61.656308 -5.043381 57.565951 85.785931 63.617580 -0.700163 -14.212133 -1.200380 0.100101 0.463091 0.039936
-43.325695 51.526046 19.762095 176.946028 -19.270110 0.330010 -2.467219 12.860367 0.252512 -0.211778 1.029394 0.067924 -0.318682 1.712294 0.140783 -2.197979 11.631365 0.693215 -2.727256 16.631173 -0.720341 -2.631949 -8.244135 -0.138309 0.906507 13.916283 6.611616 31.881555 -1.267750 -29.011061 160.268959 -71.011586 169.462317 -2.043159 2.975393 -13.502633 1.378520 13.203213 -11.467447 -32.088763 5.292730 30.147641 -170.392036 -72.318167 -154.215251 17.345120 8.694873 2.121099 -11.960257 -63.688946 6.099087 -61.758370 82.143118 -70.308243 -3.628968 -6.696143 9.146994 0.311303 -0.580748 0.128968 7.564869 -61.640573 -5.112097 57.514231 85.768950 63.597345 -0.706774 -14.206443 -1.204997 0.102553 0.465115 0.040413
-43.328527 51.526011 19.765111 176.956322 -19.289427 0.337472 -2.468090 12.868113 0.249958 -0.208696 1.025701 0.071545 -0.320959 1.716495 0.137710 -2.187392 11.629536 0.698595 -2.677957 16.631766 -0.710764 -2.667497 -8.232825 -0.138641 0.885149 13.920135 6.602610 31.812014 -1.255862 -28.987520 159.774914 -70.891084 169.945268 -1.969814 2.904131 -13.401070 1.362887 13.211836 -11.464680 -31.979449 5.308167 30.136471 -169.105837 -72.417275 -155.465037 17.235557 8.714762 1.453996 -11.936282 -63.673859 6.063313 -61.754713 82.142898 -70.306393 -3.629113 -6.701135 9.158004 0.309196 -0.580517 0.124625 7.583669 -61.618059 -5.145488 57.448294 85.756955 63.541700 -0.716453 -14.197166 -1.210752 0.110138 0.463690 0.044611
-43.330789 51.524706 19.772494 176.966988 -19.283977 0.340527 -2.475554 12.858705 0.246498 -0.196292 1.015045 0.078380 -0.333257 1.727236 0.131210 -2.165362 11.620638 0.707555 -2.666988 16.637291 -0.709107 -2.692388 -8.226413 -0.137071 0.860991 13.924948 6.594683 31.757707 -1.246416 -28.965281 159.139926 -70.781037 170.551709 -1.891277 2.805151 -13.228139 1.380503 13.214268 -11.427534 -31.954829 5.309728 30.094798 -167.580109 -72.566551 -156.902396 17.122790 8.704943 0.726380 -11.932993 -63.681424 6.050218 -61.722983 82.137526 -70.275506 -3.622238 -6.708826 9.165886 0.302971 -0.568883 0.118651 7.601034 -61.622302 -5.175877 57.334040 85.739706 63.436147 -0.726829 -14.183577 -1.213979 0.117364 0.465403 0.048185
-43.333543 51.524816 19.776361 176.984937 -19.301313 0.345983 -2.476609 12.859916 0.245619 -0.196020 1.015259 0.078526 -0.332686 1.727570 0.131698 -2.157090 11.623646 0.709225 -2.677768 16.645213 -0.709582 -2.661056 -8.224224 -0.138862 0.857860 13.905430 6.582904 31.715308 -1.229349 -28.933981 158.382522 -70.693700 171.241454 -1.807955 2.678842 -12.977827 1.357752 13.224678 -11.424772 -31.885567 5.312179 30.086251 -165.910766 -72.721216 -158.482698 17.008609 8.659400 -0.036001 -11.916767 -63.667593 6.014183 -61.727534 82.136902 -70.278942 -3.622344 -6.720514 9.169549 0.302303 -0.566982 0.119635 7.635266 -61.601558 -5.229599 57.260461 85.723613 63.378792 -0.730266 -14.171724 -1.214168 0.116597 0.464941 0.048753
-43.337774 51.524956 19.780586 176.996775 -19.314906 0.362892 -2.470905 12.857523 0.237335 -0.180575 1.005124 0.084234 -0.325693 1.724939 0.133504 -2.174815 11.639079 0.701317 -2.662490 16.648006 -0.703713 -2.622341 -8.220093 -0.137406 0.842156 13.899962 6.576856 31.653096 -1.214463 -28.901116 157.557012 -70.578100 172.021340 -1.722693 2.536078 -12.663242 1.357565 13.233697 -11.404482 -31.832701 5.315523 30.066658 -164.129974 -72.867961 -160.176572 16.889653 8.584347 -0.810489 -11.869937 -63.660627 5.953257 -61.718715 82.137975 -70.271627 -3.617457 -6.728377 9.180008 0.296284 -0.567102 0.118299 7.713982 -61.579330 -5.323606 57.170154 85.701787 63.313677 -0.733766 -14.160918 -1.213410 0.115317 0.466601 0.048944
-43.340500 51.525876 19.782931 177.005134 -19.338763 0.373014 -2.448476 12.855805 0.243167 -0.189708 1.012580 0.080491 -0.334371 1.731906 0.130253 -2.163177 11.636797 0.702957 -2.648679 16.650489 -0.697237 -2.635604 -8.213001 -0.132231 0.821129 13.903673 6.573550 31.548624 -1.200885 -28.856427 156.689156 -70.424276 172.884536 -1.644629 2.379972 -12.307312 1.365265 13.246852 -11.384039 -31.786015 5.321004 30.052527 -162.241761 -73.001324 -161.969985 16.772733 8.487696 -1.583538 -11.835555 -63.640995 5.910404 -61.715996 82.136144 -70.266677 -3.624933 -6.730772 9.178551 0.302216 -0.571630 0.123983 7.732301 -61.551765 -5.352916 57.117899 85.691552 63.261450 -0.731088 -14.151262 -1.213265 0.111673 0.464819 0.051681
